<?xml version="1.0" encoding="UTF-8" standalone="no"?>
<!DOCTYPE svg PUBLIC "-//W3C//DTD SVG 1.1//EN"
 "http://www.w3.org/Graphics/SVG/1.1/DTD/svg11.dtd">
<!-- Generated by graphviz version 2.40.1 (0)
 -->
<!-- Title: snakemake_dag Pages: 1 -->
<svg width="443pt" height="584pt"
 viewBox="0.00 0.00 443.00 584.00" xmlns="http://www.w3.org/2000/svg" xmlns:xlink="http://www.w3.org/1999/xlink">
<g id="graph0" class="graph" transform="scale(1 1) rotate(0) translate(4 580)">
<title>snakemake_dag</title>
<polygon fill="#ffffff" stroke="transparent" points="-4,4 -4,-580 439,-580 439,4 -4,4"/>
<!-- 0 -->
<g id="node1" class="node">
<title>0</title>
<path fill="none" stroke="#d86e56" stroke-width="2" d="M42,-356C42,-356 12,-356 12,-356 6,-356 0,-350 0,-344 0,-344 0,-332 0,-332 0,-326 6,-320 12,-320 12,-320 42,-320 42,-320 48,-320 54,-326 54,-332 54,-332 54,-344 54,-344 54,-350 48,-356 42,-356"/>
<text text-anchor="middle" x="27" y="-335.5" font-family="sans" font-size="10.00" fill="#000000">all</text>
</g>
<!-- 1 -->
<g id="node2" class="node">
<title>1</title>
<path fill="none" stroke="#d8bc56" stroke-width="2" d="M132,-333C132,-333 102,-333 102,-333 96,-333 90,-327 90,-321 90,-321 90,-309 90,-309 90,-303 96,-297 102,-297 102,-297 132,-297 132,-297 138,-297 144,-303 144,-309 144,-309 144,-321 144,-321 144,-327 138,-333 132,-333"/>
<text text-anchor="middle" x="117" y="-312.5" font-family="sans" font-size="10.00" fill="#000000">Index</text>
</g>
<!-- 1&#45;&gt;0 -->
<g id="edge2" class="edge">
<title>1&#45;&gt;0</title>
<path fill="none" stroke="#c0c0c0" stroke-width="2" d="M89.997,-321.9008C81.8842,-323.9741 72.8369,-326.2861 64.1869,-328.4967"/>
<polygon fill="#c0c0c0" stroke="#c0c0c0" stroke-width="2" points="63.117,-325.1575 54.295,-331.0246 64.8502,-331.9396 63.117,-325.1575"/>
</g>
<!-- 2 -->
<g id="node3" class="node">
<title>2</title>
<path fill="none" stroke="#61d856" stroke-width="2" d="M395.5,-522C395.5,-522 219.5,-522 219.5,-522 213.5,-522 207.5,-516 207.5,-510 207.5,-510 207.5,-498 207.5,-498 207.5,-492 213.5,-486 219.5,-486 219.5,-486 395.5,-486 395.5,-486 401.5,-486 407.5,-492 407.5,-498 407.5,-498 407.5,-510 407.5,-510 407.5,-516 401.5,-522 395.5,-522"/>
<text text-anchor="middle" x="307.5" y="-501.5" font-family="sans" font-size="10.00" fill="#000000">HPO_associations_gene_level_A_to_E_R</text>
</g>
<!-- 2&#45;&gt;1 -->
<g id="edge6" class="edge">
<title>2&#45;&gt;1</title>
<path fill="none" stroke="#c0c0c0" stroke-width="2" d="M207.2008,-493.036C197.3297,-489.0409 188.0179,-483.8124 180,-477 139.7083,-442.766 125.0585,-379.5109 119.8247,-342.9936"/>
<polygon fill="#c0c0c0" stroke="#c0c0c0" stroke-width="2" points="123.288,-342.4833 118.5344,-333.0147 116.3457,-343.381 123.288,-342.4833"/>
</g>
<!-- 3 -->
<g id="node4" class="node">
<title>3</title>
<path fill="none" stroke="#d8a456" stroke-width="2" d="M329.5,-576C329.5,-576 285.5,-576 285.5,-576 279.5,-576 273.5,-570 273.5,-564 273.5,-564 273.5,-552 273.5,-552 273.5,-546 279.5,-540 285.5,-540 285.5,-540 329.5,-540 329.5,-540 335.5,-540 341.5,-546 341.5,-552 341.5,-552 341.5,-564 341.5,-564 341.5,-570 335.5,-576 329.5,-576"/>
<text text-anchor="middle" x="307.5" y="-555.5" font-family="sans" font-size="10.00" fill="#000000">readme_md</text>
</g>
<!-- 3&#45;&gt;0 -->
<g id="edge1" class="edge">
<title>3&#45;&gt;0</title>
<path fill="none" stroke="#c0c0c0" stroke-width="2" d="M273.4944,-557.0318C246.3761,-554.8604 208.3716,-548.5744 180,-531 112.9192,-489.4478 63.0444,-407.5097 40.4279,-365.0046"/>
<polygon fill="#c0c0c0" stroke="#c0c0c0" stroke-width="2" points="43.4965,-363.3195 35.7685,-356.0718 37.29,-366.5568 43.4965,-363.3195"/>
</g>
<!-- 3&#45;&gt;1 -->
<g id="edge5" class="edge">
<title>3&#45;&gt;1</title>
<path fill="none" stroke="#c0c0c0" stroke-width="2" d="M273.3895,-559.8257C244.9071,-559.4534 205.0489,-554.2347 180,-531 165.9758,-517.9915 136.5298,-398.4346 123.4721,-342.994"/>
<polygon fill="#c0c0c0" stroke="#c0c0c0" stroke-width="2" points="126.8477,-342.0582 121.1601,-333.1194 120.032,-343.654 126.8477,-342.0582"/>
</g>
<!-- 4 -->
<g id="node5" class="node">
<title>4</title>
<path fill="none" stroke="#56d87b" stroke-width="2" d="M394.5,-468C394.5,-468 220.5,-468 220.5,-468 214.5,-468 208.5,-462 208.5,-456 208.5,-456 208.5,-444 208.5,-444 208.5,-438 214.5,-432 220.5,-432 220.5,-432 394.5,-432 394.5,-432 400.5,-432 406.5,-438 406.5,-444 406.5,-444 406.5,-456 406.5,-456 406.5,-462 400.5,-468 394.5,-468"/>
<text text-anchor="middle" x="307.5" y="-447.5" font-family="sans" font-size="10.00" fill="#000000">HPO_associations_gene_level_F_to_J_R</text>
</g>
<!-- 4&#45;&gt;1 -->
<g id="edge8" class="edge">
<title>4&#45;&gt;1</title>
<path fill="none" stroke="#c0c0c0" stroke-width="2" d="M208.2257,-437.729C198.1646,-433.9762 188.528,-429.1619 180,-423 152.6287,-403.2228 135.259,-367.6002 125.843,-342.6934"/>
<polygon fill="#c0c0c0" stroke="#c0c0c0" stroke-width="2" points="129.066,-341.3121 122.3986,-333.0783 122.4761,-343.6728 129.066,-341.3121"/>
</g>
<!-- 5 -->
<g id="node6" class="node">
<title>5</title>
<path fill="none" stroke="#afd856" stroke-width="2" d="M396,-414C396,-414 219,-414 219,-414 213,-414 207,-408 207,-402 207,-402 207,-390 207,-390 207,-384 213,-378 219,-378 219,-378 396,-378 396,-378 402,-378 408,-384 408,-390 408,-390 408,-402 408,-402 408,-408 402,-414 396,-414"/>
<text text-anchor="middle" x="307.5" y="-393.5" font-family="sans" font-size="10.00" fill="#000000">HPO_associations_gene_level_K_to_O_R</text>
</g>
<!-- 5&#45;&gt;1 -->
<g id="edge11" class="edge">
<title>5&#45;&gt;1</title>
<path fill="none" stroke="#c0c0c0" stroke-width="2" d="M206.6985,-379.6546C197.4598,-376.6763 188.4195,-373.1573 180,-369 165.6564,-361.9175 151.9024,-350.8187 140.9254,-340.5206"/>
<polygon fill="#c0c0c0" stroke="#c0c0c0" stroke-width="2" points="143.0567,-337.7101 133.4546,-333.2324 138.1686,-342.7207 143.0567,-337.7101"/>
</g>
<!-- 6 -->
<g id="node7" class="node">
<title>6</title>
<path fill="none" stroke="#d85656" stroke-width="2" d="M395.5,-360C395.5,-360 219.5,-360 219.5,-360 213.5,-360 207.5,-354 207.5,-348 207.5,-348 207.5,-336 207.5,-336 207.5,-330 213.5,-324 219.5,-324 219.5,-324 395.5,-324 395.5,-324 401.5,-324 407.5,-330 407.5,-336 407.5,-336 407.5,-348 407.5,-348 407.5,-354 401.5,-360 395.5,-360"/>
<text text-anchor="middle" x="307.5" y="-339.5" font-family="sans" font-size="10.00" fill="#000000">HPO_associations_gene_level_P_to_T_R</text>
</g>
<!-- 6&#45;&gt;1 -->
<g id="edge4" class="edge">
<title>6&#45;&gt;1</title>
<path fill="none" stroke="#c0c0c0" stroke-width="2" d="M207.2291,-327.7884C188.2934,-325.1046 169.623,-322.4584 154.2226,-320.2756"/>
<polygon fill="#c0c0c0" stroke="#c0c0c0" stroke-width="2" points="154.5123,-316.7818 144.1201,-318.8438 153.53,-323.7125 154.5123,-316.7818"/>
</g>
<!-- 7 -->
<g id="node8" class="node">
<title>7</title>
<path fill="none" stroke="#56a2d8" stroke-width="2" d="M395.5,-306C395.5,-306 219.5,-306 219.5,-306 213.5,-306 207.5,-300 207.5,-294 207.5,-294 207.5,-282 207.5,-282 207.5,-276 213.5,-270 219.5,-270 219.5,-270 395.5,-270 395.5,-270 401.5,-270 407.5,-276 407.5,-282 407.5,-282 407.5,-294 407.5,-294 407.5,-300 401.5,-306 395.5,-306"/>
<text text-anchor="middle" x="307.5" y="-285.5" font-family="sans" font-size="10.00" fill="#000000">HPO_associations_gene_level_U_to_Z_R</text>
</g>
<!-- 7&#45;&gt;1 -->
<g id="edge9" class="edge">
<title>7&#45;&gt;1</title>
<path fill="none" stroke="#c0c0c0" stroke-width="2" d="M207.2291,-302.2116C188.2934,-304.8954 169.623,-307.5416 154.2226,-309.7244"/>
<polygon fill="#c0c0c0" stroke="#c0c0c0" stroke-width="2" points="153.53,-306.2875 144.1201,-311.1562 154.5123,-313.2182 153.53,-306.2875"/>
</g>
<!-- 8 -->
<g id="node9" class="node">
<title>8</title>
<path fill="none" stroke="#56d863" stroke-width="2" d="M423,-252C423,-252 192,-252 192,-252 186,-252 180,-246 180,-240 180,-240 180,-228 180,-228 180,-222 186,-216 192,-216 192,-216 423,-216 423,-216 429,-216 435,-222 435,-228 435,-228 435,-240 435,-240 435,-246 429,-252 423,-252"/>
<text text-anchor="middle" x="307.5" y="-231.5" font-family="sans" font-size="10.00" fill="#000000">HPO_associations_gene_level_all_genes_summary_R</text>
</g>
<!-- 8&#45;&gt;1 -->
<g id="edge7" class="edge">
<title>8&#45;&gt;1</title>
<path fill="none" stroke="#c0c0c0" stroke-width="2" d="M201.7115,-252.0137C194.2125,-254.6165 186.8979,-257.594 180,-261 165.6564,-268.0825 151.9024,-279.1813 140.9254,-289.4794"/>
<polygon fill="#c0c0c0" stroke="#c0c0c0" stroke-width="2" points="138.1686,-287.2793 133.4546,-296.7676 143.0567,-292.2899 138.1686,-287.2793"/>
</g>
<!-- 9 -->
<g id="node10" class="node">
<title>9</title>
<path fill="none" stroke="#56d892" stroke-width="2" d="M411,-198C411,-198 204,-198 204,-198 198,-198 192,-192 192,-186 192,-186 192,-174 192,-174 192,-168 198,-162 204,-162 204,-162 411,-162 411,-162 417,-162 423,-168 423,-174 423,-174 423,-186 423,-186 423,-192 417,-198 411,-198"/>
<text text-anchor="middle" x="307.5" y="-177.5" font-family="sans" font-size="10.00" fill="#000000">HPO_associations_patient_level_patient_level_R</text>
</g>
<!-- 9&#45;&gt;1 -->
<g id="edge10" class="edge">
<title>9&#45;&gt;1</title>
<path fill="none" stroke="#c0c0c0" stroke-width="2" d="M194.9173,-198.0313C189.6867,-200.647 184.6766,-203.6209 180,-207 152.6287,-226.7772 135.259,-262.3998 125.843,-287.3066"/>
<polygon fill="#c0c0c0" stroke="#c0c0c0" stroke-width="2" points="122.4761,-286.3272 122.3986,-296.9217 129.066,-288.6879 122.4761,-286.3272"/>
</g>
<!-- 10 -->
<g id="node11" class="node">
<title>10</title>
<path fill="none" stroke="#56d0d8" stroke-width="2" d="M371.5,-144C371.5,-144 243.5,-144 243.5,-144 237.5,-144 231.5,-138 231.5,-132 231.5,-132 231.5,-120 231.5,-120 231.5,-114 237.5,-108 243.5,-108 243.5,-108 371.5,-108 371.5,-108 377.5,-108 383.5,-114 383.5,-120 383.5,-120 383.5,-132 383.5,-132 383.5,-138 377.5,-144 371.5,-144"/>
<text text-anchor="middle" x="307.5" y="-123.5" font-family="sans" font-size="10.00" fill="#000000">all_contributors_contributors_R</text>
</g>
<!-- 10&#45;&gt;1 -->
<g id="edge3" class="edge">
<title>10&#45;&gt;1</title>
<path fill="none" stroke="#c0c0c0" stroke-width="2" d="M231.4564,-129.5933C212.9677,-133.6415 194.3977,-140.7669 180,-153 139.7083,-187.234 125.0585,-250.4891 119.8247,-287.0064"/>
<polygon fill="#c0c0c0" stroke="#c0c0c0" stroke-width="2" points="116.3457,-286.619 118.5344,-296.9853 123.288,-287.5167 116.3457,-286.619"/>
</g>
<!-- 11 -->
<g id="node12" class="node">
<title>11</title>
<path fill="none" stroke="#97d856" stroke-width="2" d="M404,-90C404,-90 211,-90 211,-90 205,-90 199,-84 199,-78 199,-78 199,-66 199,-66 199,-60 205,-54 211,-54 211,-54 404,-54 404,-54 410,-54 416,-60 416,-66 416,-66 416,-78 416,-78 416,-84 410,-90 404,-90"/>
<text text-anchor="middle" x="307.5" y="-69.5" font-family="sans" font-size="10.00" fill="#000000">data_protection_data_protection_statement_R</text>
</g>
<!-- 11&#45;&gt;1 -->
<g id="edge12" class="edge">
<title>11&#45;&gt;1</title>
<path fill="none" stroke="#c0c0c0" stroke-width="2" d="M198.874,-85.8949C192.0311,-89.4501 185.6401,-93.7684 180,-99 152.3361,-124.6603 130.547,-234.6028 121.5204,-287.0069"/>
<polygon fill="#c0c0c0" stroke="#c0c0c0" stroke-width="2" points="118.0516,-286.5292 119.8388,-296.9722 124.954,-287.694 118.0516,-286.5292"/>
</g>
<!-- 12 -->
<g id="node13" class="node">
<title>12</title>
<path fill="none" stroke="#5673d8" stroke-width="2" d="M404.5,-36C404.5,-36 210.5,-36 210.5,-36 204.5,-36 198.5,-30 198.5,-24 198.5,-24 198.5,-12 198.5,-12 198.5,-6 204.5,0 210.5,0 210.5,0 404.5,0 404.5,0 410.5,0 416.5,-6 416.5,-12 416.5,-12 416.5,-24 416.5,-24 416.5,-30 410.5,-36 404.5,-36"/>
<text text-anchor="middle" x="307.5" y="-15.5" font-family="sans" font-size="10.00" fill="#000000">genetic_variants_disease_causing_variants_R</text>
</g>
<!-- 12&#45;&gt;1 -->
<g id="edge13" class="edge">
<title>12&#45;&gt;1</title>
<path fill="none" stroke="#c0c0c0" stroke-width="2" d="M198.2491,-31.7131C191.5953,-35.3171 185.4145,-39.6956 180,-45 145.6175,-78.6831 126.5064,-224.5205 119.7899,-286.721"/>
<polygon fill="#c0c0c0" stroke="#c0c0c0" stroke-width="2" points="116.2764,-286.6672 118.7135,-296.9779 123.2381,-287.3978 116.2764,-286.6672"/>
</g>
</g>
</svg>
