<?xml version="1.0" encoding="UTF-8" standalone="no"?>
<!DOCTYPE svg PUBLIC "-//W3C//DTD SVG 1.1//EN"
 "http://www.w3.org/Graphics/SVG/1.1/DTD/svg11.dtd">
<!-- Generated by graphviz version 2.40.1 (0)
 -->
<!-- Title: snakemake_dag Pages: 1 -->
<svg width="443pt" height="746pt"
 viewBox="0.00 0.00 443.00 746.00" xmlns="http://www.w3.org/2000/svg" xmlns:xlink="http://www.w3.org/1999/xlink">
<g id="graph0" class="graph" transform="scale(1 1) rotate(0) translate(4 742)">
<title>snakemake_dag</title>
<polygon fill="#ffffff" stroke="transparent" points="-4,4 -4,-742 439,-742 439,4 -4,4"/>
<!-- 0 -->
<g id="node1" class="node">
<title>0</title>
<path fill="none" stroke="#d6d856" stroke-width="2" d="M42,-437C42,-437 12,-437 12,-437 6,-437 0,-431 0,-425 0,-425 0,-413 0,-413 0,-407 6,-401 12,-401 12,-401 42,-401 42,-401 48,-401 54,-407 54,-413 54,-413 54,-425 54,-425 54,-431 48,-437 42,-437"/>
<text text-anchor="middle" x="27" y="-416.5" font-family="sans" font-size="10.00" fill="#000000">all</text>
</g>
<!-- 1 -->
<g id="node2" class="node">
<title>1</title>
<path fill="none" stroke="#56d882" stroke-width="2" d="M132,-414C132,-414 102,-414 102,-414 96,-414 90,-408 90,-402 90,-402 90,-390 90,-390 90,-384 96,-378 102,-378 102,-378 132,-378 132,-378 138,-378 144,-384 144,-390 144,-390 144,-402 144,-402 144,-408 138,-414 132,-414"/>
<text text-anchor="middle" x="117" y="-393.5" font-family="sans" font-size="10.00" fill="#000000">Index</text>
</g>
<!-- 1&#45;&gt;0 -->
<g id="edge1" class="edge">
<title>1&#45;&gt;0</title>
<path fill="none" stroke="#c0c0c0" stroke-width="2" d="M89.997,-402.9008C81.8842,-404.9741 72.8369,-407.2861 64.1869,-409.4967"/>
<polygon fill="#c0c0c0" stroke="#c0c0c0" stroke-width="2" points="63.117,-406.1575 54.295,-412.0246 64.8502,-412.9396 63.117,-406.1575"/>
</g>
<!-- 2 -->
<g id="node3" class="node">
<title>2</title>
<path fill="none" stroke="#56c1d8" stroke-width="2" d="M395.5,-684C395.5,-684 219.5,-684 219.5,-684 213.5,-684 207.5,-678 207.5,-672 207.5,-672 207.5,-660 207.5,-660 207.5,-654 213.5,-648 219.5,-648 219.5,-648 395.5,-648 395.5,-648 401.5,-648 407.5,-654 407.5,-660 407.5,-660 407.5,-672 407.5,-672 407.5,-678 401.5,-684 395.5,-684"/>
<text text-anchor="middle" x="307.5" y="-663.5" font-family="sans" font-size="10.00" fill="#000000">HPO_associations_gene_level_A_to_E_R</text>
</g>
<!-- 2&#45;&gt;1 -->
<g id="edge10" class="edge">
<title>2&#45;&gt;1</title>
<path fill="none" stroke="#c0c0c0" stroke-width="2" d="M207.3139,-656.355C197.2394,-652.1447 187.8504,-646.5049 180,-639 148.9989,-609.3632 128.4284,-481.6667 120.5739,-424.2066"/>
<polygon fill="#c0c0c0" stroke="#c0c0c0" stroke-width="2" points="124.0063,-423.4663 119.2144,-414.0171 117.0678,-424.3921 124.0063,-423.4663"/>
</g>
<!-- 3 -->
<g id="node4" class="node">
<title>3</title>
<path fill="none" stroke="#d8c356" stroke-width="2" d="M329.5,-738C329.5,-738 285.5,-738 285.5,-738 279.5,-738 273.5,-732 273.5,-726 273.5,-726 273.5,-714 273.5,-714 273.5,-708 279.5,-702 285.5,-702 285.5,-702 329.5,-702 329.5,-702 335.5,-702 341.5,-708 341.5,-714 341.5,-714 341.5,-726 341.5,-726 341.5,-732 335.5,-738 329.5,-738"/>
<text text-anchor="middle" x="307.5" y="-717.5" font-family="sans" font-size="10.00" fill="#000000">readme_md</text>
</g>
<!-- 3&#45;&gt;0 -->
<g id="edge2" class="edge">
<title>3&#45;&gt;0</title>
<path fill="none" stroke="#c0c0c0" stroke-width="2" d="M273.2426,-720.2604C245.6189,-718.8264 207.0483,-712.9337 180,-693 94.2959,-629.8391 50.2854,-503.4582 34.2529,-447.1695"/>
<polygon fill="#c0c0c0" stroke="#c0c0c0" stroke-width="2" points="37.5341,-445.9025 31.498,-437.1953 30.7867,-447.7662 37.5341,-445.9025"/>
</g>
<!-- 3&#45;&gt;1 -->
<g id="edge5" class="edge">
<title>3&#45;&gt;1</title>
<path fill="none" stroke="#c0c0c0" stroke-width="2" d="M273.2277,-722.2907C244.4456,-722.2414 204.2429,-717.2347 180,-693 160.8529,-673.8594 131.8613,-494.1471 121.159,-423.9254"/>
<polygon fill="#c0c0c0" stroke="#c0c0c0" stroke-width="2" points="124.616,-423.377 119.6592,-414.0131 117.6947,-424.4242 124.616,-423.377"/>
</g>
<!-- 4 -->
<g id="node5" class="node">
<title>4</title>
<path fill="none" stroke="#566bd8" stroke-width="2" d="M394.5,-630C394.5,-630 220.5,-630 220.5,-630 214.5,-630 208.5,-624 208.5,-618 208.5,-618 208.5,-606 208.5,-606 208.5,-600 214.5,-594 220.5,-594 220.5,-594 394.5,-594 394.5,-594 400.5,-594 406.5,-600 406.5,-606 406.5,-606 406.5,-618 406.5,-618 406.5,-624 400.5,-630 394.5,-630"/>
<text text-anchor="middle" x="307.5" y="-609.5" font-family="sans" font-size="10.00" fill="#000000">HPO_associations_gene_level_F_to_J_R</text>
</g>
<!-- 4&#45;&gt;1 -->
<g id="edge16" class="edge">
<title>4&#45;&gt;1</title>
<path fill="none" stroke="#c0c0c0" stroke-width="2" d="M208.4467,-602.0726C198.0454,-597.9307 188.2701,-592.3841 180,-585 155.7144,-563.316 133.0769,-471.3118 122.7974,-424.1408"/>
<polygon fill="#c0c0c0" stroke="#c0c0c0" stroke-width="2" points="126.1975,-423.3032 120.6818,-414.2573 119.3526,-424.7684 126.1975,-423.3032"/>
</g>
<!-- 5 -->
<g id="node6" class="node">
<title>5</title>
<path fill="none" stroke="#56d8c1" stroke-width="2" d="M396,-576C396,-576 219,-576 219,-576 213,-576 207,-570 207,-564 207,-564 207,-552 207,-552 207,-546 213,-540 219,-540 219,-540 396,-540 396,-540 402,-540 408,-546 408,-552 408,-552 408,-564 408,-564 408,-570 402,-576 396,-576"/>
<text text-anchor="middle" x="307.5" y="-555.5" font-family="sans" font-size="10.00" fill="#000000">HPO_associations_gene_level_K_to_O_R</text>
</g>
<!-- 5&#45;&gt;1 -->
<g id="edge7" class="edge">
<title>5&#45;&gt;1</title>
<path fill="none" stroke="#c0c0c0" stroke-width="2" d="M206.6803,-546.1186C197.0805,-542.2757 187.9717,-537.3341 180,-531 146.3078,-504.2289 129.7989,-455.2309 122.3694,-424.2065"/>
<polygon fill="#c0c0c0" stroke="#c0c0c0" stroke-width="2" points="125.6972,-423.0481 120.1068,-414.0482 118.8646,-424.57 125.6972,-423.0481"/>
</g>
<!-- 6 -->
<g id="node7" class="node">
<title>6</title>
<path fill="none" stroke="#d89556" stroke-width="2" d="M395.5,-522C395.5,-522 219.5,-522 219.5,-522 213.5,-522 207.5,-516 207.5,-510 207.5,-510 207.5,-498 207.5,-498 207.5,-492 213.5,-486 219.5,-486 219.5,-486 395.5,-486 395.5,-486 401.5,-486 407.5,-492 407.5,-498 407.5,-498 407.5,-510 407.5,-510 407.5,-516 401.5,-522 395.5,-522"/>
<text text-anchor="middle" x="307.5" y="-501.5" font-family="sans" font-size="10.00" fill="#000000">HPO_associations_gene_level_P_to_T_R</text>
</g>
<!-- 6&#45;&gt;1 -->
<g id="edge3" class="edge">
<title>6&#45;&gt;1</title>
<path fill="none" stroke="#c0c0c0" stroke-width="2" d="M207.367,-489.985C197.7436,-486.5454 188.439,-482.2817 180,-477 159.0385,-463.881 142.2867,-441.1755 131.342,-423.1359"/>
<polygon fill="#c0c0c0" stroke="#c0c0c0" stroke-width="2" points="134.2039,-421.0944 126.1564,-414.2032 128.15,-424.6088 134.2039,-421.0944"/>
</g>
<!-- 7 -->
<g id="node8" class="node">
<title>7</title>
<path fill="none" stroke="#56d89a" stroke-width="2" d="M395.5,-468C395.5,-468 219.5,-468 219.5,-468 213.5,-468 207.5,-462 207.5,-456 207.5,-456 207.5,-444 207.5,-444 207.5,-438 213.5,-432 219.5,-432 219.5,-432 395.5,-432 395.5,-432 401.5,-432 407.5,-438 407.5,-444 407.5,-444 407.5,-456 407.5,-456 407.5,-462 401.5,-468 395.5,-468"/>
<text text-anchor="middle" x="307.5" y="-447.5" font-family="sans" font-size="10.00" fill="#000000">HPO_associations_gene_level_U_to_Z_R</text>
</g>
<!-- 7&#45;&gt;1 -->
<g id="edge14" class="edge">
<title>7&#45;&gt;1</title>
<path fill="none" stroke="#c0c0c0" stroke-width="2" d="M212.2712,-431.9874C201.3069,-429.279 190.3535,-426.2799 180,-423 171.2633,-420.2323 162.0815,-416.6862 153.5131,-413.0806"/>
<polygon fill="#c0c0c0" stroke="#c0c0c0" stroke-width="2" points="154.7231,-409.7905 144.1561,-409.0228 151.938,-416.2126 154.7231,-409.7905"/>
</g>
<!-- 8 -->
<g id="node9" class="node">
<title>8</title>
<path fill="none" stroke="#d88556" stroke-width="2" d="M423,-414C423,-414 192,-414 192,-414 186,-414 180,-408 180,-402 180,-402 180,-390 180,-390 180,-384 186,-378 192,-378 192,-378 423,-378 423,-378 429,-378 435,-384 435,-390 435,-390 435,-402 435,-402 435,-408 429,-414 423,-414"/>
<text text-anchor="middle" x="307.5" y="-393.5" font-family="sans" font-size="10.00" fill="#000000">HPO_associations_gene_level_all_genes_summary_R</text>
</g>
<!-- 8&#45;&gt;1 -->
<g id="edge12" class="edge">
<title>8&#45;&gt;1</title>
<path fill="none" stroke="#c0c0c0" stroke-width="2" d="M179.9048,-396C170.7717,-396 162.0888,-396 154.2518,-396"/>
<polygon fill="#c0c0c0" stroke="#c0c0c0" stroke-width="2" points="154.1265,-392.5001 144.1264,-396 154.1264,-399.5001 154.1265,-392.5001"/>
</g>
<!-- 9 -->
<g id="node10" class="node">
<title>9</title>
<path fill="none" stroke="#97d856" stroke-width="2" d="M411,-360C411,-360 204,-360 204,-360 198,-360 192,-354 192,-348 192,-348 192,-336 192,-336 192,-330 198,-324 204,-324 204,-324 411,-324 411,-324 417,-324 423,-330 423,-336 423,-336 423,-348 423,-348 423,-354 417,-360 411,-360"/>
<text text-anchor="middle" x="307.5" y="-339.5" font-family="sans" font-size="10.00" fill="#000000">HPO_associations_patient_level_patient_level_R</text>
</g>
<!-- 9&#45;&gt;1 -->
<g id="edge15" class="edge">
<title>9&#45;&gt;1</title>
<path fill="none" stroke="#c0c0c0" stroke-width="2" d="M212.2712,-360.0126C201.3069,-362.721 190.3535,-365.7201 180,-369 171.2633,-371.7677 162.0815,-375.3138 153.5131,-378.9194"/>
<polygon fill="#c0c0c0" stroke="#c0c0c0" stroke-width="2" points="151.938,-375.7874 144.1561,-382.9772 154.7231,-382.2095 151.938,-375.7874"/>
</g>
<!-- 10 -->
<g id="node11" class="node">
<title>10</title>
<path fill="none" stroke="#afd856" stroke-width="2" d="M362.5,-306C362.5,-306 252.5,-306 252.5,-306 246.5,-306 240.5,-300 240.5,-294 240.5,-294 240.5,-282 240.5,-282 240.5,-276 246.5,-270 252.5,-270 252.5,-270 362.5,-270 362.5,-270 368.5,-270 374.5,-276 374.5,-282 374.5,-282 374.5,-294 374.5,-294 374.5,-300 368.5,-306 362.5,-306"/>
<text text-anchor="middle" x="307.5" y="-285.5" font-family="sans" font-size="10.00" fill="#000000">WES_study_MD_genes_R</text>
</g>
<!-- 10&#45;&gt;1 -->
<g id="edge13" class="edge">
<title>10&#45;&gt;1</title>
<path fill="none" stroke="#c0c0c0" stroke-width="2" d="M240.2773,-293.259C219.7745,-297.1497 197.933,-303.7765 180,-315 159.0385,-328.119 142.2867,-350.8245 131.342,-368.8641"/>
<polygon fill="#c0c0c0" stroke="#c0c0c0" stroke-width="2" points="128.15,-367.3912 126.1564,-377.7968 134.2039,-370.9056 128.15,-367.3912"/>
</g>
<!-- 11 -->
<g id="node12" class="node">
<title>11</title>
<path fill="none" stroke="#56d8d8" stroke-width="2" d="M383.5,-252C383.5,-252 231.5,-252 231.5,-252 225.5,-252 219.5,-246 219.5,-240 219.5,-240 219.5,-228 219.5,-228 219.5,-222 225.5,-216 231.5,-216 231.5,-216 383.5,-216 383.5,-216 389.5,-216 395.5,-222 395.5,-228 395.5,-228 395.5,-240 395.5,-240 395.5,-246 389.5,-252 383.5,-252"/>
<text text-anchor="middle" x="307.5" y="-231.5" font-family="sans" font-size="10.00" fill="#000000">WES_study_clinical_presentation_R</text>
</g>
<!-- 11&#45;&gt;1 -->
<g id="edge8" class="edge">
<title>11&#45;&gt;1</title>
<path fill="none" stroke="#c0c0c0" stroke-width="2" d="M219.3841,-241.4807C205.1883,-245.7031 191.4261,-251.9211 180,-261 146.3078,-287.7711 129.7989,-336.7691 122.3694,-367.7935"/>
<polygon fill="#c0c0c0" stroke="#c0c0c0" stroke-width="2" points="118.8646,-367.43 120.1068,-377.9518 125.6972,-368.9519 118.8646,-367.43"/>
</g>
<!-- 12 -->
<g id="node13" class="node">
<title>12</title>
<path fill="none" stroke="#68d856" stroke-width="2" d="M379.5,-198C379.5,-198 235.5,-198 235.5,-198 229.5,-198 223.5,-192 223.5,-186 223.5,-186 223.5,-174 223.5,-174 223.5,-168 229.5,-162 235.5,-162 235.5,-162 379.5,-162 379.5,-162 385.5,-162 391.5,-168 391.5,-174 391.5,-174 391.5,-186 391.5,-186 391.5,-192 385.5,-198 379.5,-198"/>
<text text-anchor="middle" x="307.5" y="-177.5" font-family="sans" font-size="10.00" fill="#000000">WES_study_genetic_diagnoses_R</text>
</g>
<!-- 12&#45;&gt;1 -->
<g id="edge4" class="edge">
<title>12&#45;&gt;1</title>
<path fill="none" stroke="#c0c0c0" stroke-width="2" d="M223.4164,-184.9785C207.5538,-189.2672 192.1519,-196.1499 180,-207 155.7144,-228.684 133.0769,-320.6882 122.7974,-367.8592"/>
<polygon fill="#c0c0c0" stroke="#c0c0c0" stroke-width="2" points="119.3526,-367.2316 120.6818,-377.7427 126.1975,-368.6968 119.3526,-367.2316"/>
</g>
<!-- 13 -->
<g id="node14" class="node">
<title>13</title>
<path fill="none" stroke="#59d856" stroke-width="2" d="M373,-144C373,-144 242,-144 242,-144 236,-144 230,-138 230,-132 230,-132 230,-120 230,-120 230,-114 236,-108 242,-108 242,-108 373,-108 373,-108 379,-108 385,-114 385,-120 385,-120 385,-132 385,-132 385,-138 379,-144 373,-144"/>
<text text-anchor="middle" x="307.5" y="-123.5" font-family="sans" font-size="10.00" fill="#000000">WES_study_study_overview_R</text>
</g>
<!-- 13&#45;&gt;1 -->
<g id="edge6" class="edge">
<title>13&#45;&gt;1</title>
<path fill="none" stroke="#c0c0c0" stroke-width="2" d="M229.7829,-128.6205C211.5308,-132.7116 193.4929,-140.1009 180,-153 148.9989,-182.6368 128.4284,-310.3333 120.5739,-367.7934"/>
<polygon fill="#c0c0c0" stroke="#c0c0c0" stroke-width="2" points="117.0678,-367.6079 119.2144,-377.9829 124.0063,-368.5337 117.0678,-367.6079"/>
</g>
<!-- 14 -->
<g id="node15" class="node">
<title>14</title>
<path fill="none" stroke="#56a9d8" stroke-width="2" d="M371.5,-90C371.5,-90 243.5,-90 243.5,-90 237.5,-90 231.5,-84 231.5,-78 231.5,-78 231.5,-66 231.5,-66 231.5,-60 237.5,-54 243.5,-54 243.5,-54 371.5,-54 371.5,-54 377.5,-54 383.5,-60 383.5,-66 383.5,-66 383.5,-78 383.5,-78 383.5,-84 377.5,-90 371.5,-90"/>
<text text-anchor="middle" x="307.5" y="-69.5" font-family="sans" font-size="10.00" fill="#000000">all_contributors_contributors_R</text>
</g>
<!-- 14&#45;&gt;1 -->
<g id="edge11" class="edge">
<title>14&#45;&gt;1</title>
<path fill="none" stroke="#c0c0c0" stroke-width="2" d="M231.3729,-73.7762C212.4465,-77.7701 193.6817,-85.323 180,-99 142.2162,-136.7709 124.7678,-300.9528 119.1412,-367.6637"/>
<polygon fill="#c0c0c0" stroke="#c0c0c0" stroke-width="2" points="115.6341,-367.6089 118.3099,-377.8603 122.611,-368.1778 115.6341,-367.6089"/>
</g>
<!-- 15 -->
<g id="node16" class="node">
<title>15</title>
<path fill="none" stroke="#d8ac56" stroke-width="2" d="M404.5,-36C404.5,-36 210.5,-36 210.5,-36 204.5,-36 198.5,-30 198.5,-24 198.5,-24 198.5,-12 198.5,-12 198.5,-6 204.5,0 210.5,0 210.5,0 404.5,0 404.5,0 410.5,0 416.5,-6 416.5,-12 416.5,-12 416.5,-24 416.5,-24 416.5,-30 410.5,-36 404.5,-36"/>
<text text-anchor="middle" x="307.5" y="-15.5" font-family="sans" font-size="10.00" fill="#000000">genetic_variants_disease_causing_variants_R</text>
</g>
<!-- 15&#45;&gt;1 -->
<g id="edge9" class="edge">
<title>15&#45;&gt;1</title>
<path fill="none" stroke="#c0c0c0" stroke-width="2" d="M198.2296,-31.2362C191.5358,-34.9437 185.3545,-39.4764 180,-45 135.3339,-91.0766 121.6953,-292.6973 118.1229,-367.7331"/>
<polygon fill="#c0c0c0" stroke="#c0c0c0" stroke-width="2" points="114.6207,-367.7043 117.6664,-377.8519 121.6136,-368.0198 114.6207,-367.7043"/>
</g>
</g>
</svg>
