<?xml version="1.0" encoding="UTF-8" standalone="no"?>
<!DOCTYPE svg PUBLIC "-//W3C//DTD SVG 1.1//EN"
 "http://www.w3.org/Graphics/SVG/1.1/DTD/svg11.dtd">
<!-- Generated by graphviz version 2.30.1 (20200930.0103)
 -->
<!-- Title: snakemake_dag Pages: 1 -->
<svg width="392pt" height="260pt"
 viewBox="0.00 0.00 392.00 260.00" xmlns="http://www.w3.org/2000/svg" xmlns:xlink="http://www.w3.org/1999/xlink">
<g id="graph0" class="graph" transform="scale(1 1) rotate(0) translate(4 256)">
<title>snakemake_dag</title>
<polygon fill="white" stroke="white" points="-4,5 -4,-256 389,-256 389,5 -4,5"/>
<!-- 0 -->
<g id="node1" class="node"><title>0</title>
<path fill="none" stroke="#d8bc56" stroke-width="2" d="M42,-85C42,-85 12,-85 12,-85 6,-85 0,-79 0,-73 0,-73 0,-61 0,-61 0,-55 6,-49 12,-49 12,-49 42,-49 42,-49 48,-49 54,-55 54,-61 54,-61 54,-73 54,-73 54,-79 48,-85 42,-85"/>
<text text-anchor="middle" x="27" y="-64.5" font-family="sans" font-size="10.00">all</text>
</g>
<!-- 1 -->
<g id="node2" class="node"><title>1</title>
<path fill="none" stroke="#68d856" stroke-width="2" d="M132,-117C132,-117 102,-117 102,-117 96,-117 90,-111 90,-105 90,-105 90,-93 90,-93 90,-87 96,-81 102,-81 102,-81 132,-81 132,-81 138,-81 144,-87 144,-93 144,-93 144,-105 144,-105 144,-111 138,-117 132,-117"/>
<text text-anchor="middle" x="117" y="-96.5" font-family="sans" font-size="10.00">Index</text>
</g>
<!-- 1&#45;&gt;0 -->
<g id="edge2" class="edge"><title>1&#45;&gt;0</title>
<path fill="none" stroke="grey" stroke-width="2" d="M89.5971,-89.3989C81.4311,-86.4295 72.297,-83.108 63.6152,-79.951"/>
<polygon fill="grey" stroke="grey" points="64.6751,-76.6122 54.081,-76.484 62.2828,-83.1908 64.6751,-76.6122"/>
</g>
<!-- 2 -->
<g id="node3" class="node"><title>2</title>
<path fill="none" stroke="#567bd8" stroke-width="2" d="M357,-252C357,-252 207,-252 207,-252 201,-252 195,-246 195,-240 195,-240 195,-228 195,-228 195,-222 201,-216 207,-216 207,-216 357,-216 357,-216 363,-216 369,-222 369,-228 369,-228 369,-240 369,-240 369,-246 363,-252 357,-252"/>
<text text-anchor="middle" x="282" y="-231.5" font-family="sans" font-size="10.00">HPO_associations_gene_level_R</text>
</g>
<!-- 2&#45;&gt;1 -->
<g id="edge7" class="edge"><title>2&#45;&gt;1</title>
<path fill="none" stroke="grey" stroke-width="2" d="M194.916,-216.291C189.636,-213.617 184.605,-210.54 180,-207 153.487,-186.616 136.377,-151.433 126.988,-126.779"/>
<polygon fill="grey" stroke="grey" points="130.235,-125.467 123.542,-117.254 123.653,-127.848 130.235,-125.467"/>
</g>
<!-- 3 -->
<g id="node4" class="node"><title>3</title>
<path fill="none" stroke="#56c1d8" stroke-width="2" d="M307.5,-36C307.5,-36 256.5,-36 256.5,-36 250.5,-36 244.5,-30 244.5,-24 244.5,-24 244.5,-12 244.5,-12 244.5,-6 250.5,-0 256.5,-0 256.5,-0 307.5,-0 307.5,-0 313.5,-0 319.5,-6 319.5,-12 319.5,-12 319.5,-24 319.5,-24 319.5,-30 313.5,-36 307.5,-36"/>
<text text-anchor="middle" x="282" y="-15.5" font-family="sans" font-size="10.00">readme_md</text>
</g>
<!-- 3&#45;&gt;0 -->
<g id="edge1" class="edge"><title>3&#45;&gt;0</title>
<path fill="none" stroke="grey" stroke-width="2" d="M244.482,-25.0727C196.291,-34.406 111.978,-50.7354 64.0321,-60.0215"/>
<polygon fill="grey" stroke="grey" points="63.2459,-56.6086 54.0939,-61.9462 64.577,-63.4809 63.2459,-56.6086"/>
</g>
<!-- 3&#45;&gt;1 -->
<g id="edge5" class="edge"><title>3&#45;&gt;1</title>
<path fill="none" stroke="grey" stroke-width="2" d="M244.46,-23.6042C224.58,-27.6578 200.03,-34.3448 180,-45 166.107,-52.3903 152.682,-63.4296 141.898,-73.6047"/>
<polygon fill="grey" stroke="grey" points="139.247,-71.3024 134.544,-80.7964 144.141,-76.3072 139.247,-71.3024"/>
</g>
<!-- 4 -->
<g id="node5" class="node"><title>4</title>
<path fill="none" stroke="#56d8d0" stroke-width="2" d="M362.5,-198C362.5,-198 201.5,-198 201.5,-198 195.5,-198 189.5,-192 189.5,-186 189.5,-186 189.5,-174 189.5,-174 189.5,-168 195.5,-162 201.5,-162 201.5,-162 362.5,-162 362.5,-162 368.5,-162 374.5,-168 374.5,-174 374.5,-174 374.5,-186 374.5,-186 374.5,-192 368.5,-198 362.5,-198"/>
<text text-anchor="middle" x="282" y="-177.5" font-family="sans" font-size="10.00">HPO_associations_patient_level_R</text>
</g>
<!-- 4&#45;&gt;1 -->
<g id="edge4" class="edge"><title>4&#45;&gt;1</title>
<path fill="none" stroke="grey" stroke-width="2" d="M200.053,-161.954C193.11,-159.338 186.33,-156.367 180,-153 166.107,-145.61 152.682,-134.57 141.898,-124.395"/>
<polygon fill="grey" stroke="grey" points="144.141,-121.693 134.544,-117.204 139.247,-126.698 144.141,-121.693"/>
</g>
<!-- 5 -->
<g id="node6" class="node"><title>5</title>
<path fill="none" stroke="#569ad8" stroke-width="2" d="M354,-144C354,-144 210,-144 210,-144 204,-144 198,-138 198,-132 198,-132 198,-120 198,-120 198,-114 204,-108 210,-108 210,-108 354,-108 354,-108 360,-108 366,-114 366,-120 366,-120 366,-132 366,-132 366,-138 360,-144 354,-144"/>
<text text-anchor="middle" x="282" y="-123.5" font-family="sans" font-size="10.00">all_contributors_contributors_R</text>
</g>
<!-- 5&#45;&gt;1 -->
<g id="edge6" class="edge"><title>5&#45;&gt;1</title>
<path fill="none" stroke="grey" stroke-width="2" d="M197.59,-112.184C182.262,-109.645 167.025,-107.121 154.048,-104.971"/>
<polygon fill="grey" stroke="grey" points="154.604,-101.516 144.166,-103.334 153.46,-108.421 154.604,-101.516"/>
</g>
<!-- 6 -->
<g id="node7" class="node"><title>6</title>
<path fill="none" stroke="#56d88a" stroke-width="2" d="M371.5,-90C371.5,-90 192.5,-90 192.5,-90 186.5,-90 180.5,-84 180.5,-78 180.5,-78 180.5,-66 180.5,-66 180.5,-60 186.5,-54 192.5,-54 192.5,-54 371.5,-54 371.5,-54 377.5,-54 383.5,-60 383.5,-66 383.5,-66 383.5,-78 383.5,-78 383.5,-84 377.5,-90 371.5,-90"/>
<text text-anchor="middle" x="282" y="-69.5" font-family="sans" font-size="10.00">variant_information_study_variants_R</text>
</g>
<!-- 6&#45;&gt;1 -->
<g id="edge3" class="edge"><title>6&#45;&gt;1</title>
<path fill="none" stroke="grey" stroke-width="2" d="M180.088,-88.7154C170.941,-90.2307 162.14,-91.6885 154.183,-93.0064"/>
<polygon fill="grey" stroke="grey" points="153.546,-89.5642 144.252,-94.6514 154.69,-96.4701 153.546,-89.5642"/>
</g>
</g>
</svg>
