<?xml version="1.0" encoding="UTF-8" standalone="no"?>
<!DOCTYPE svg PUBLIC "-//W3C//DTD SVG 1.1//EN"
 "http://www.w3.org/Graphics/SVG/1.1/DTD/svg11.dtd">
<!-- Generated by graphviz version 2.40.1 (0)
 -->
<!-- Title: snakemake_dag Pages: 1 -->
<svg width="479pt" height="638pt"
 viewBox="0.00 0.00 479.00 638.00" xmlns="http://www.w3.org/2000/svg" xmlns:xlink="http://www.w3.org/1999/xlink">
<g id="graph0" class="graph" transform="scale(1 1) rotate(0) translate(4 634)">
<title>snakemake_dag</title>
<polygon fill="#ffffff" stroke="transparent" points="-4,4 -4,-634 475,-634 475,4 -4,4"/>
<!-- 0 -->
<g id="node1" class="node">
<title>0</title>
<path fill="none" stroke="#b6d856" stroke-width="2" d="M42,-383C42,-383 12,-383 12,-383 6,-383 0,-377 0,-371 0,-371 0,-359 0,-359 0,-353 6,-347 12,-347 12,-347 42,-347 42,-347 48,-347 54,-353 54,-359 54,-359 54,-371 54,-371 54,-377 48,-383 42,-383"/>
<text text-anchor="middle" x="27" y="-362.5" font-family="sans" font-size="10.00" fill="#000000">all</text>
</g>
<!-- 1 -->
<g id="node2" class="node">
<title>1</title>
<path fill="none" stroke="#566bd8" stroke-width="2" d="M132,-360C132,-360 102,-360 102,-360 96,-360 90,-354 90,-348 90,-348 90,-336 90,-336 90,-330 96,-324 102,-324 102,-324 132,-324 132,-324 138,-324 144,-330 144,-336 144,-336 144,-348 144,-348 144,-354 138,-360 132,-360"/>
<text text-anchor="middle" x="117" y="-339.5" font-family="sans" font-size="10.00" fill="#000000">Index</text>
</g>
<!-- 1&#45;&gt;0 -->
<g id="edge1" class="edge">
<title>1&#45;&gt;0</title>
<path fill="none" stroke="#c0c0c0" stroke-width="2" d="M89.997,-348.9008C81.8842,-350.9741 72.8369,-353.2861 64.1869,-355.4967"/>
<polygon fill="#c0c0c0" stroke="#c0c0c0" stroke-width="2" points="63.117,-352.1575 54.295,-358.0246 64.8502,-358.9396 63.117,-352.1575"/>
</g>
<!-- 2 -->
<g id="node3" class="node">
<title>2</title>
<path fill="none" stroke="#56d89a" stroke-width="2" d="M441,-576C441,-576 210,-576 210,-576 204,-576 198,-570 198,-564 198,-564 198,-552 198,-552 198,-546 204,-540 210,-540 210,-540 441,-540 441,-540 447,-540 453,-546 453,-552 453,-552 453,-564 453,-564 453,-570 447,-576 441,-576"/>
<text text-anchor="middle" x="325.5" y="-555.5" font-family="sans" font-size="10.00" fill="#000000">HPO_associations_gene_level_all_genes_summary_R</text>
</g>
<!-- 2&#45;&gt;1 -->
<g id="edge7" class="edge">
<title>2&#45;&gt;1</title>
<path fill="none" stroke="#c0c0c0" stroke-width="2" d="M197.7528,-543.1377C191.4055,-539.7361 185.4259,-535.7231 180,-531 155.4431,-509.6238 132.9334,-417.4746 122.7404,-370.2055"/>
<polygon fill="#c0c0c0" stroke="#c0c0c0" stroke-width="2" points="126.1389,-369.3589 120.6436,-360.3007 119.2907,-370.8088 126.1389,-369.3589"/>
</g>
<!-- 3 -->
<g id="node4" class="node">
<title>3</title>
<path fill="none" stroke="#d88556" stroke-width="2" d="M347.5,-630C347.5,-630 303.5,-630 303.5,-630 297.5,-630 291.5,-624 291.5,-618 291.5,-618 291.5,-606 291.5,-606 291.5,-600 297.5,-594 303.5,-594 303.5,-594 347.5,-594 347.5,-594 353.5,-594 359.5,-600 359.5,-606 359.5,-606 359.5,-618 359.5,-618 359.5,-624 353.5,-630 347.5,-630"/>
<text text-anchor="middle" x="325.5" y="-609.5" font-family="sans" font-size="10.00" fill="#000000">readme_md</text>
</g>
<!-- 3&#45;&gt;0 -->
<g id="edge2" class="edge">
<title>3&#45;&gt;0</title>
<path fill="none" stroke="#c0c0c0" stroke-width="2" d="M291.352,-612.8026C260.0361,-611.976 213.563,-606.6696 180,-585 106.1096,-537.2934 57.9128,-440.0683 37.758,-392.4797"/>
<polygon fill="#c0c0c0" stroke="#c0c0c0" stroke-width="2" points="40.9404,-391.0165 33.8836,-383.1139 34.472,-393.6924 40.9404,-391.0165"/>
</g>
<!-- 3&#45;&gt;1 -->
<g id="edge8" class="edge">
<title>3&#45;&gt;1</title>
<path fill="none" stroke="#c0c0c0" stroke-width="2" d="M291.2225,-615.3166C258.4645,-616.5001 209.7869,-612.7662 180,-585 164.0984,-570.1771 134.7155,-430.8544 122.5244,-370.1002"/>
<polygon fill="#c0c0c0" stroke="#c0c0c0" stroke-width="2" points="125.9086,-369.1734 120.521,-360.0506 119.0436,-370.5419 125.9086,-369.1734"/>
</g>
<!-- 4 -->
<g id="node5" class="node">
<title>4</title>
<path fill="none" stroke="#56d882" stroke-width="2" d="M459,-522C459,-522 192,-522 192,-522 186,-522 180,-516 180,-510 180,-510 180,-498 180,-498 180,-492 186,-486 192,-486 192,-486 459,-486 459,-486 465,-486 471,-492 471,-498 471,-498 471,-510 471,-510 471,-516 465,-522 459,-522"/>
<text text-anchor="middle" x="325.5" y="-501.5" font-family="sans" font-size="10.00" fill="#000000">HPO_associations_gene_level_mitochondrial_DNA_mtDNA_R</text>
</g>
<!-- 4&#45;&gt;1 -->
<g id="edge14" class="edge">
<title>4&#45;&gt;1</title>
<path fill="none" stroke="#c0c0c0" stroke-width="2" d="M193.5613,-485.865C188.8114,-483.2456 184.2661,-480.3029 180,-477 145.8245,-450.5405 129.4216,-401.1002 122.151,-369.9561"/>
<polygon fill="#c0c0c0" stroke="#c0c0c0" stroke-width="2" points="125.5652,-369.1848 120.0229,-360.1552 118.7246,-370.6702 125.5652,-369.1848"/>
</g>
<!-- 5 -->
<g id="node6" class="node">
<title>5</title>
<path fill="none" stroke="#88d856" stroke-width="2" d="M445.5,-468C445.5,-468 205.5,-468 205.5,-468 199.5,-468 193.5,-462 193.5,-456 193.5,-456 193.5,-444 193.5,-444 193.5,-438 199.5,-432 205.5,-432 205.5,-432 445.5,-432 445.5,-432 451.5,-432 457.5,-438 457.5,-444 457.5,-444 457.5,-456 457.5,-456 457.5,-462 451.5,-468 445.5,-468"/>
<text text-anchor="middle" x="325.5" y="-447.5" font-family="sans" font-size="10.00" fill="#000000">HPO_associations_gene_level_nuclear_DNA_A_to_E_R</text>
</g>
<!-- 5&#45;&gt;1 -->
<g id="edge10" class="edge">
<title>5&#45;&gt;1</title>
<path fill="none" stroke="#c0c0c0" stroke-width="2" d="M197.2948,-431.8774C191.29,-429.2827 185.487,-426.3386 180,-423 158.8748,-410.1462 142.1369,-387.4182 131.2391,-369.3026"/>
<polygon fill="#c0c0c0" stroke="#c0c0c0" stroke-width="2" points="134.0978,-367.2526 126.0803,-360.3265 128.0287,-370.7407 134.0978,-367.2526"/>
</g>
<!-- 6 -->
<g id="node7" class="node">
<title>6</title>
<path fill="none" stroke="#ced856" stroke-width="2" d="M444.5,-414C444.5,-414 206.5,-414 206.5,-414 200.5,-414 194.5,-408 194.5,-402 194.5,-402 194.5,-390 194.5,-390 194.5,-384 200.5,-378 206.5,-378 206.5,-378 444.5,-378 444.5,-378 450.5,-378 456.5,-384 456.5,-390 456.5,-390 456.5,-402 456.5,-402 456.5,-408 450.5,-414 444.5,-414"/>
<text text-anchor="middle" x="325.5" y="-393.5" font-family="sans" font-size="10.00" fill="#000000">HPO_associations_gene_level_nuclear_DNA_F_to_J_R</text>
</g>
<!-- 6&#45;&gt;1 -->
<g id="edge6" class="edge">
<title>6&#45;&gt;1</title>
<path fill="none" stroke="#c0c0c0" stroke-width="2" d="M214.0659,-377.9521C202.4758,-375.2935 190.9416,-372.3151 180,-369 171.2291,-366.3426 162.0337,-362.8405 153.4629,-359.2424"/>
<polygon fill="#c0c0c0" stroke="#c0c0c0" stroke-width="2" points="154.6742,-355.9526 144.1076,-355.1791 151.8855,-362.3732 154.6742,-355.9526"/>
</g>
<!-- 7 -->
<g id="node8" class="node">
<title>7</title>
<path fill="none" stroke="#d85656" stroke-width="2" d="M446,-360C446,-360 205,-360 205,-360 199,-360 193,-354 193,-348 193,-348 193,-336 193,-336 193,-330 199,-324 205,-324 205,-324 446,-324 446,-324 452,-324 458,-330 458,-336 458,-336 458,-348 458,-348 458,-354 452,-360 446,-360"/>
<text text-anchor="middle" x="325.5" y="-339.5" font-family="sans" font-size="10.00" fill="#000000">HPO_associations_gene_level_nuclear_DNA_K_to_O_R</text>
</g>
<!-- 7&#45;&gt;1 -->
<g id="edge4" class="edge">
<title>7&#45;&gt;1</title>
<path fill="none" stroke="#c0c0c0" stroke-width="2" d="M192.8631,-342C178.9863,-342 165.836,-342 154.502,-342"/>
<polygon fill="#c0c0c0" stroke="#c0c0c0" stroke-width="2" points="154.2277,-338.5001 144.2276,-342 154.2276,-345.5001 154.2277,-338.5001"/>
</g>
<!-- 8 -->
<g id="node9" class="node">
<title>8</title>
<path fill="none" stroke="#5682d8" stroke-width="2" d="M445,-306C445,-306 206,-306 206,-306 200,-306 194,-300 194,-294 194,-294 194,-282 194,-282 194,-276 200,-270 206,-270 206,-270 445,-270 445,-270 451,-270 457,-276 457,-282 457,-282 457,-294 457,-294 457,-300 451,-306 445,-306"/>
<text text-anchor="middle" x="325.5" y="-285.5" font-family="sans" font-size="10.00" fill="#000000">HPO_associations_gene_level_nuclear_DNA_P_to_T_R</text>
</g>
<!-- 8&#45;&gt;1 -->
<g id="edge11" class="edge">
<title>8&#45;&gt;1</title>
<path fill="none" stroke="#c0c0c0" stroke-width="2" d="M214.0659,-306.0479C202.4758,-308.7065 190.9416,-311.6849 180,-315 171.2291,-317.6574 162.0337,-321.1595 153.4629,-324.7576"/>
<polygon fill="#c0c0c0" stroke="#c0c0c0" stroke-width="2" points="151.8855,-321.6268 144.1076,-328.8209 154.6742,-328.0474 151.8855,-321.6268"/>
</g>
<!-- 9 -->
<g id="node10" class="node">
<title>9</title>
<path fill="none" stroke="#56b1d8" stroke-width="2" d="M445.5,-252C445.5,-252 205.5,-252 205.5,-252 199.5,-252 193.5,-246 193.5,-240 193.5,-240 193.5,-228 193.5,-228 193.5,-222 199.5,-216 205.5,-216 205.5,-216 445.5,-216 445.5,-216 451.5,-216 457.5,-222 457.5,-228 457.5,-228 457.5,-240 457.5,-240 457.5,-246 451.5,-252 445.5,-252"/>
<text text-anchor="middle" x="325.5" y="-231.5" font-family="sans" font-size="10.00" fill="#000000">HPO_associations_gene_level_nuclear_DNA_U_to_Z_R</text>
</g>
<!-- 9&#45;&gt;1 -->
<g id="edge9" class="edge">
<title>9&#45;&gt;1</title>
<path fill="none" stroke="#c0c0c0" stroke-width="2" d="M197.2948,-252.1226C191.29,-254.7173 185.487,-257.6614 180,-261 158.8748,-273.8538 142.1369,-296.5818 131.2391,-314.6974"/>
<polygon fill="#c0c0c0" stroke="#c0c0c0" stroke-width="2" points="128.0287,-313.2593 126.0803,-323.6735 134.0978,-316.7474 128.0287,-313.2593"/>
</g>
<!-- 10 -->
<g id="node11" class="node">
<title>10</title>
<path fill="none" stroke="#d89c56" stroke-width="2" d="M429,-198C429,-198 222,-198 222,-198 216,-198 210,-192 210,-186 210,-186 210,-174 210,-174 210,-168 216,-162 222,-162 222,-162 429,-162 429,-162 435,-162 441,-168 441,-174 441,-174 441,-186 441,-186 441,-192 435,-198 429,-198"/>
<text text-anchor="middle" x="325.5" y="-177.5" font-family="sans" font-size="10.00" fill="#000000">HPO_associations_patient_level_patient_level_R</text>
</g>
<!-- 10&#45;&gt;1 -->
<g id="edge13" class="edge">
<title>10&#45;&gt;1</title>
<path fill="none" stroke="#c0c0c0" stroke-width="2" d="M209.8069,-190.6436C199.1026,-194.7405 188.9385,-200.0796 180,-207 145.8245,-233.4595 129.4216,-282.8998 122.151,-314.0439"/>
<polygon fill="#c0c0c0" stroke="#c0c0c0" stroke-width="2" points="118.7246,-313.3298 120.0229,-323.8448 125.5652,-314.8152 118.7246,-313.3298"/>
</g>
<!-- 11 -->
<g id="node12" class="node">
<title>11</title>
<path fill="none" stroke="#56d8b1" stroke-width="2" d="M389.5,-144C389.5,-144 261.5,-144 261.5,-144 255.5,-144 249.5,-138 249.5,-132 249.5,-132 249.5,-120 249.5,-120 249.5,-114 255.5,-108 261.5,-108 261.5,-108 389.5,-108 389.5,-108 395.5,-108 401.5,-114 401.5,-120 401.5,-120 401.5,-132 401.5,-132 401.5,-138 395.5,-144 389.5,-144"/>
<text text-anchor="middle" x="325.5" y="-123.5" font-family="sans" font-size="10.00" fill="#000000">all_contributors_contributors_R</text>
</g>
<!-- 11&#45;&gt;1 -->
<g id="edge12" class="edge">
<title>11&#45;&gt;1</title>
<path fill="none" stroke="#c0c0c0" stroke-width="2" d="M249.344,-125.2682C224.7641,-128.6378 198.9907,-136.469 180,-153 155.4431,-174.3762 132.9334,-266.5254 122.7404,-313.7945"/>
<polygon fill="#c0c0c0" stroke="#c0c0c0" stroke-width="2" points="119.2907,-313.1912 120.6436,-323.6993 126.1389,-314.6411 119.2907,-313.1912"/>
</g>
<!-- 12 -->
<g id="node13" class="node">
<title>12</title>
<path fill="none" stroke="#d8cb56" stroke-width="2" d="M422,-90C422,-90 229,-90 229,-90 223,-90 217,-84 217,-78 217,-78 217,-66 217,-66 217,-60 223,-54 229,-54 229,-54 422,-54 422,-54 428,-54 434,-60 434,-66 434,-66 434,-78 434,-78 434,-84 428,-90 422,-90"/>
<text text-anchor="middle" x="325.5" y="-69.5" font-family="sans" font-size="10.00" fill="#000000">data_protection_data_protection_statement_R</text>
</g>
<!-- 12&#45;&gt;1 -->
<g id="edge3" class="edge">
<title>12&#45;&gt;1</title>
<path fill="none" stroke="#c0c0c0" stroke-width="2" d="M216.7444,-77.8515C203.1764,-82.5015 190.4301,-89.2775 180,-99 148.6279,-128.2438 128.2568,-256.1515 120.5145,-313.7304"/>
<polygon fill="#c0c0c0" stroke="#c0c0c0" stroke-width="2" points="117.0054,-313.5713 119.1753,-323.9415 123.946,-314.4816 117.0054,-313.5713"/>
</g>
<!-- 13 -->
<g id="node14" class="node">
<title>13</title>
<path fill="none" stroke="#d86e56" stroke-width="2" d="M422.5,-36C422.5,-36 228.5,-36 228.5,-36 222.5,-36 216.5,-30 216.5,-24 216.5,-24 216.5,-12 216.5,-12 216.5,-6 222.5,0 228.5,0 228.5,0 422.5,0 422.5,0 428.5,0 434.5,-6 434.5,-12 434.5,-12 434.5,-24 434.5,-24 434.5,-30 428.5,-36 422.5,-36"/>
<text text-anchor="middle" x="325.5" y="-15.5" font-family="sans" font-size="10.00" fill="#000000">genetic_variants_disease_causing_variants_R</text>
</g>
<!-- 13&#45;&gt;1 -->
<g id="edge5" class="edge">
<title>13&#45;&gt;1</title>
<path fill="none" stroke="#c0c0c0" stroke-width="2" d="M216.3403,-23.4275C202.8324,-28.1406 190.2105,-35.047 180,-45 141.7433,-82.2918 124.5709,-246.7534 119.0797,-313.6014"/>
<polygon fill="#c0c0c0" stroke="#c0c0c0" stroke-width="2" points="115.571,-313.5741 118.2696,-323.8194 122.5491,-314.1274 115.571,-313.5741"/>
</g>
</g>
</svg>
