<?xml version="1.0" encoding="UTF-8" standalone="no"?>
<!DOCTYPE svg PUBLIC "-//W3C//DTD SVG 1.1//EN"
 "http://www.w3.org/Graphics/SVG/1.1/DTD/svg11.dtd">
<!-- Generated by graphviz version 2.30.1 (20200930.0103)
 -->
<!-- Title: snakemake_dag Pages: 1 -->
<svg width="478pt" height="368pt"
 viewBox="0.00 0.00 478.00 368.00" xmlns="http://www.w3.org/2000/svg" xmlns:xlink="http://www.w3.org/1999/xlink">
<g id="graph0" class="graph" transform="scale(1 1) rotate(0) translate(4 364)">
<title>snakemake_dag</title>
<polygon fill="white" stroke="white" points="-4,5 -4,-364 475,-364 475,5 -4,5"/>
<!-- 0 -->
<g id="node1" class="node"><title>0</title>
<path fill="none" stroke="#56b1d8" stroke-width="2" d="M42,-277C42,-277 12,-277 12,-277 6,-277 0,-271 0,-265 0,-265 0,-253 0,-253 0,-247 6,-241 12,-241 12,-241 42,-241 42,-241 48,-241 54,-247 54,-253 54,-253 54,-265 54,-265 54,-271 48,-277 42,-277"/>
<text text-anchor="middle" x="27" y="-256.5" font-family="sans" font-size="10.00">all</text>
</g>
<!-- 1 -->
<g id="node2" class="node"><title>1</title>
<path fill="none" stroke="#d8d356" stroke-width="2" d="M132,-225C132,-225 102,-225 102,-225 96,-225 90,-219 90,-213 90,-213 90,-201 90,-201 90,-195 96,-189 102,-189 102,-189 132,-189 132,-189 138,-189 144,-195 144,-201 144,-201 144,-213 144,-213 144,-219 138,-225 132,-225"/>
<text text-anchor="middle" x="117" y="-204.5" font-family="sans" font-size="10.00">Index</text>
</g>
<!-- 1&#45;&gt;0 -->
<g id="edge2" class="edge"><title>1&#45;&gt;0</title>
<path fill="none" stroke="grey" stroke-width="2" d="M89.5971,-222.602C81.1677,-227.583 71.7067,-233.173 62.7765,-238.45"/>
<polygon fill="grey" stroke="grey" points="60.9097,-235.488 54.081,-243.588 64.4709,-241.514 60.9097,-235.488"/>
</g>
<!-- 2 -->
<g id="node3" class="node"><title>2</title>
<path fill="none" stroke="#56d0d8" stroke-width="2" d="M388.5,-306C388.5,-306 261.5,-306 261.5,-306 255.5,-306 249.5,-300 249.5,-294 249.5,-294 249.5,-282 249.5,-282 249.5,-276 255.5,-270 261.5,-270 261.5,-270 388.5,-270 388.5,-270 394.5,-270 400.5,-276 400.5,-282 400.5,-282 400.5,-294 400.5,-294 400.5,-300 394.5,-306 388.5,-306"/>
<text text-anchor="middle" x="325" y="-285.5" font-family="sans" font-size="10.00">contributors_contributors_R</text>
</g>
<!-- 2&#45;&gt;1 -->
<g id="edge8" class="edge"><title>2&#45;&gt;1</title>
<path fill="none" stroke="grey" stroke-width="2" d="M249.469,-281.703C226.383,-277.76 201.405,-271.365 180,-261 165.63,-254.042 151.981,-242.855 141.167,-232.464"/>
<polygon fill="grey" stroke="grey" points="143.366,-229.713 133.824,-225.11 138.413,-234.659 143.366,-229.713"/>
</g>
<!-- 3 -->
<g id="node4" class="node"><title>3</title>
<path fill="none" stroke="#d8b456" stroke-width="2" d="M350.5,-360C350.5,-360 299.5,-360 299.5,-360 293.5,-360 287.5,-354 287.5,-348 287.5,-348 287.5,-336 287.5,-336 287.5,-330 293.5,-324 299.5,-324 299.5,-324 350.5,-324 350.5,-324 356.5,-324 362.5,-330 362.5,-336 362.5,-336 362.5,-348 362.5,-348 362.5,-354 356.5,-360 350.5,-360"/>
<text text-anchor="middle" x="325" y="-339.5" font-family="sans" font-size="10.00">readme_md</text>
</g>
<!-- 3&#45;&gt;0 -->
<g id="edge1" class="edge"><title>3&#45;&gt;0</title>
<path fill="none" stroke="grey" stroke-width="2" d="M287.217,-336.845C257.888,-332.319 215.921,-324.909 180,-315 139.27,-303.764 93.9942,-286.429 63.537,-274.023"/>
<polygon fill="grey" stroke="grey" points="64.7734,-270.747 54.1936,-270.182 62.112,-277.221 64.7734,-270.747"/>
</g>
<!-- 3&#45;&gt;1 -->
<g id="edge4" class="edge"><title>3&#45;&gt;1</title>
<path fill="none" stroke="grey" stroke-width="2" d="M287.311,-343.329C256.083,-342.672 211.419,-337.312 180,-315 152.578,-295.526 135.588,-259.838 126.478,-234.833"/>
<polygon fill="grey" stroke="grey" points="129.719,-233.494 123.155,-225.177 123.1,-235.772 129.719,-233.494"/>
</g>
<!-- 4 -->
<g id="node5" class="node"><title>4</title>
<path fill="none" stroke="#5692d8" stroke-width="2" d="M381.5,-252C381.5,-252 268.5,-252 268.5,-252 262.5,-252 256.5,-246 256.5,-240 256.5,-240 256.5,-228 256.5,-228 256.5,-222 262.5,-216 268.5,-216 268.5,-216 381.5,-216 381.5,-216 387.5,-216 393.5,-222 393.5,-228 393.5,-228 393.5,-240 393.5,-240 393.5,-246 387.5,-252 381.5,-252"/>
<text text-anchor="middle" x="325" y="-231.5" font-family="sans" font-size="10.00">gene_HPO_study_HPO_R</text>
</g>
<!-- 4&#45;&gt;1 -->
<g id="edge9" class="edge"><title>4&#45;&gt;1</title>
<path fill="none" stroke="grey" stroke-width="2" d="M256.263,-225.122C222.26,-220.665 182.427,-215.444 154.272,-211.754"/>
<polygon fill="grey" stroke="grey" points="154.46,-208.249 144.09,-210.42 153.55,-215.189 154.46,-208.249"/>
</g>
<!-- 5 -->
<g id="node6" class="node"><title>5</title>
<path fill="none" stroke="#56d882" stroke-width="2" d="M452.5,-198C452.5,-198 197.5,-198 197.5,-198 191.5,-198 185.5,-192 185.5,-186 185.5,-186 185.5,-174 185.5,-174 185.5,-168 191.5,-162 197.5,-162 197.5,-162 452.5,-162 452.5,-162 458.5,-162 464.5,-168 464.5,-174 464.5,-174 464.5,-186 464.5,-186 464.5,-192 458.5,-198 452.5,-198"/>
<text text-anchor="middle" x="325" y="-177.5" font-family="sans" font-size="10.00">gene_HPO_study_plus_registry_and_literature_HPO_R</text>
</g>
<!-- 5&#45;&gt;1 -->
<g id="edge7" class="edge"><title>5&#45;&gt;1</title>
<path fill="none" stroke="grey" stroke-width="2" d="M186.595,-198.009C175.012,-199.527 164.086,-200.96 154.501,-202.216"/>
<polygon fill="grey" stroke="grey" points="153.747,-198.785 144.286,-203.555 154.656,-205.725 153.747,-198.785"/>
</g>
<!-- 6 -->
<g id="node7" class="node"><title>6</title>
<path fill="none" stroke="#d87556" stroke-width="2" d="M387,-144C387,-144 263,-144 263,-144 257,-144 251,-138 251,-132 251,-132 251,-120 251,-120 251,-114 257,-108 263,-108 263,-108 387,-108 387,-108 393,-108 399,-114 399,-120 399,-120 399,-132 399,-132 399,-138 393,-144 387,-144"/>
<text text-anchor="middle" x="325" y="-123.5" font-family="sans" font-size="10.00">patient_HPO_study_HPO_R</text>
</g>
<!-- 6&#45;&gt;1 -->
<g id="edge3" class="edge"><title>6&#45;&gt;1</title>
<path fill="none" stroke="grey" stroke-width="2" d="M250.948,-132.047C227.454,-135.968 201.863,-142.414 180,-153 165.63,-159.958 151.981,-171.145 141.167,-181.536"/>
<polygon fill="grey" stroke="grey" points="138.413,-179.341 133.824,-188.89 143.366,-184.287 138.413,-179.341"/>
</g>
<!-- 7 -->
<g id="node8" class="node"><title>7</title>
<path fill="none" stroke="#56d863" stroke-width="2" d="M458,-90C458,-90 192,-90 192,-90 186,-90 180,-84 180,-78 180,-78 180,-66 180,-66 180,-60 186,-54 192,-54 192,-54 458,-54 458,-54 464,-54 470,-60 470,-66 470,-66 470,-78 470,-78 470,-84 464,-90 458,-90"/>
<text text-anchor="middle" x="325" y="-69.5" font-family="sans" font-size="10.00">patient_HPO_study_plus_registry_and_literature_HPO_R</text>
</g>
<!-- 7&#45;&gt;1 -->
<g id="edge6" class="edge"><title>7&#45;&gt;1</title>
<path fill="none" stroke="grey" stroke-width="2" d="M194.787,-90.1407C189.624,-92.7466 184.666,-95.6864 180,-99 152.578,-118.474 135.588,-154.162 126.478,-179.167"/>
<polygon fill="grey" stroke="grey" points="123.1,-178.228 123.155,-188.823 129.719,-180.506 123.1,-178.228"/>
</g>
<!-- 8 -->
<g id="node9" class="node"><title>8</title>
<path fill="none" stroke="#9fd856" stroke-width="2" d="M405.5,-36C405.5,-36 244.5,-36 244.5,-36 238.5,-36 232.5,-30 232.5,-24 232.5,-24 232.5,-12 232.5,-12 232.5,-6 238.5,-0 244.5,-0 244.5,-0 405.5,-0 405.5,-0 411.5,-0 417.5,-6 417.5,-12 417.5,-12 417.5,-24 417.5,-24 417.5,-30 411.5,-36 405.5,-36"/>
<text text-anchor="middle" x="325" y="-15.5" font-family="sans" font-size="10.00">patient_variants_study_variants_R</text>
</g>
<!-- 8&#45;&gt;1 -->
<g id="edge5" class="edge"><title>8&#45;&gt;1</title>
<path fill="none" stroke="grey" stroke-width="2" d="M232.179,-20.9919C213.319,-25.3031 194.746,-32.6975 180,-45 139.487,-78.8007 125.387,-142.216 120.523,-178.877"/>
<polygon fill="grey" stroke="grey" points="117.036,-178.555 119.335,-188.897 123.988,-179.379 117.036,-178.555"/>
</g>
</g>
</svg>
