<?xml version="1.0" encoding="UTF-8" standalone="no"?>
<!DOCTYPE svg PUBLIC "-//W3C//DTD SVG 1.1//EN"
 "http://www.w3.org/Graphics/SVG/1.1/DTD/svg11.dtd">
<!-- Generated by graphviz version 2.40.1 (0)
 -->
<!-- Title: snakemake_dag Pages: 1 -->
<svg width="502pt" height="692pt"
 viewBox="0.00 0.00 502.00 692.00" xmlns="http://www.w3.org/2000/svg" xmlns:xlink="http://www.w3.org/1999/xlink">
<g id="graph0" class="graph" transform="scale(1 1) rotate(0) translate(4 688)">
<title>snakemake_dag</title>
<polygon fill="#ffffff" stroke="transparent" points="-4,4 -4,-688 498,-688 498,4 -4,4"/>
<!-- 0 -->
<g id="node1" class="node">
<title>0</title>
<path fill="none" stroke="#56b1d8" stroke-width="2" d="M42,-410C42,-410 12,-410 12,-410 6,-410 0,-404 0,-398 0,-398 0,-386 0,-386 0,-380 6,-374 12,-374 12,-374 42,-374 42,-374 48,-374 54,-380 54,-386 54,-386 54,-398 54,-398 54,-404 48,-410 42,-410"/>
<text text-anchor="middle" x="27" y="-389.5" font-family="sans" font-size="10.00" fill="#000000">all</text>
</g>
<!-- 1 -->
<g id="node2" class="node">
<title>1</title>
<path fill="none" stroke="#566bd8" stroke-width="2" d="M132,-387C132,-387 102,-387 102,-387 96,-387 90,-381 90,-375 90,-375 90,-363 90,-363 90,-357 96,-351 102,-351 102,-351 132,-351 132,-351 138,-351 144,-357 144,-363 144,-363 144,-375 144,-375 144,-381 138,-387 132,-387"/>
<text text-anchor="middle" x="117" y="-366.5" font-family="sans" font-size="10.00" fill="#000000">Index</text>
</g>
<!-- 1&#45;&gt;0 -->
<g id="edge2" class="edge">
<title>1&#45;&gt;0</title>
<path fill="none" stroke="#c0c0c0" stroke-width="2" d="M89.997,-375.9008C81.8842,-377.9741 72.8369,-380.2861 64.1869,-382.4967"/>
<polygon fill="#c0c0c0" stroke="#c0c0c0" stroke-width="2" points="63.117,-379.1575 54.295,-385.0246 64.8502,-385.9396 63.117,-379.1575"/>
</g>
<!-- 2 -->
<g id="node3" class="node">
<title>2</title>
<path fill="none" stroke="#d89c56" stroke-width="2" d="M464,-630C464,-630 210,-630 210,-630 204,-630 198,-624 198,-618 198,-618 198,-606 198,-606 198,-600 204,-594 210,-594 210,-594 464,-594 464,-594 470,-594 476,-600 476,-606 476,-606 476,-618 476,-618 476,-624 470,-630 464,-630"/>
<text text-anchor="middle" x="337" y="-609.5" font-family="sans" font-size="10.00" fill="#000000">HPO_associations_gene_level_all_genes_summary_R</text>
</g>
<!-- 2&#45;&gt;1 -->
<g id="edge7" class="edge">
<title>2&#45;&gt;1</title>
<path fill="none" stroke="#c0c0c0" stroke-width="2" d="M197.8824,-597.5745C191.4864,-594.0394 185.468,-589.8802 180,-585 151.8489,-559.8752 130.308,-449.6599 121.4324,-397.0898"/>
<polygon fill="#c0c0c0" stroke="#c0c0c0" stroke-width="2" points="124.8639,-396.3876 119.7804,-387.092 117.9576,-397.5289 124.8639,-396.3876"/>
</g>
<!-- 3 -->
<g id="node4" class="node">
<title>3</title>
<path fill="none" stroke="#56d8d0" stroke-width="2" d="M362.5,-684C362.5,-684 311.5,-684 311.5,-684 305.5,-684 299.5,-678 299.5,-672 299.5,-672 299.5,-660 299.5,-660 299.5,-654 305.5,-648 311.5,-648 311.5,-648 362.5,-648 362.5,-648 368.5,-648 374.5,-654 374.5,-660 374.5,-660 374.5,-672 374.5,-672 374.5,-678 368.5,-684 362.5,-684"/>
<text text-anchor="middle" x="337" y="-663.5" font-family="sans" font-size="10.00" fill="#000000">readme_md</text>
</g>
<!-- 3&#45;&gt;0 -->
<g id="edge1" class="edge">
<title>3&#45;&gt;0</title>
<path fill="none" stroke="#c0c0c0" stroke-width="2" d="M299.2377,-667.8985C265.278,-667.7775 215.4286,-662.889 180,-639 99.4256,-584.6698 53.4741,-472.2245 35.6671,-419.9048"/>
<polygon fill="#c0c0c0" stroke="#c0c0c0" stroke-width="2" points="38.9452,-418.6703 32.479,-410.2775 32.3001,-420.8709 38.9452,-418.6703"/>
</g>
<!-- 3&#45;&gt;1 -->
<g id="edge4" class="edge">
<title>3&#45;&gt;1</title>
<path fill="none" stroke="#c0c0c0" stroke-width="2" d="M299.2342,-670.3554C263.8172,-672.2141 211.6955,-668.8808 180,-639 162.2919,-622.3057 133.244,-463.4795 121.825,-397.5102"/>
<polygon fill="#c0c0c0" stroke="#c0c0c0" stroke-width="2" points="125.2302,-396.6592 120.0869,-387.3966 118.3313,-397.8449 125.2302,-396.6592"/>
</g>
<!-- 4 -->
<g id="node5" class="node">
<title>4</title>
<path fill="none" stroke="#61d856" stroke-width="2" d="M482,-576C482,-576 192,-576 192,-576 186,-576 180,-570 180,-564 180,-564 180,-552 180,-552 180,-546 186,-540 192,-540 192,-540 482,-540 482,-540 488,-540 494,-546 494,-552 494,-552 494,-564 494,-564 494,-570 488,-576 482,-576"/>
<text text-anchor="middle" x="337" y="-555.5" font-family="sans" font-size="10.00" fill="#000000">HPO_associations_gene_level_mitochondrial_DNA_mtDNA_R</text>
</g>
<!-- 4&#45;&gt;1 -->
<g id="edge14" class="edge">
<title>4&#45;&gt;1</title>
<path fill="none" stroke="#c0c0c0" stroke-width="2" d="M192.9286,-539.9735C188.399,-537.3052 184.0691,-534.325 180,-531 139.0589,-497.5453 124.6486,-434.0028 119.6307,-397.2265"/>
<polygon fill="#c0c0c0" stroke="#c0c0c0" stroke-width="2" points="123.0894,-396.6747 118.4027,-387.1728 116.141,-397.5234 123.0894,-396.6747"/>
</g>
<!-- 5 -->
<g id="node6" class="node">
<title>5</title>
<path fill="none" stroke="#56d8a2" stroke-width="2" d="M465.5,-522C465.5,-522 208.5,-522 208.5,-522 202.5,-522 196.5,-516 196.5,-510 196.5,-510 196.5,-498 196.5,-498 196.5,-492 202.5,-486 208.5,-486 208.5,-486 465.5,-486 465.5,-486 471.5,-486 477.5,-492 477.5,-498 477.5,-498 477.5,-510 477.5,-510 477.5,-516 471.5,-522 465.5,-522"/>
<text text-anchor="middle" x="337" y="-501.5" font-family="sans" font-size="10.00" fill="#000000">HPO_associations_gene_level_nuclear_DNA_A_to_E_R</text>
</g>
<!-- 5&#45;&gt;1 -->
<g id="edge11" class="edge">
<title>5&#45;&gt;1</title>
<path fill="none" stroke="#c0c0c0" stroke-width="2" d="M196.1862,-486.4419C190.5399,-483.6792 185.1129,-480.5471 180,-477 152.2543,-457.7516 134.9653,-422.0151 125.6701,-396.9375"/>
<polygon fill="#c0c0c0" stroke="#c0c0c0" stroke-width="2" points="128.8859,-395.5309 122.2769,-387.2501 122.2795,-397.845 128.8859,-395.5309"/>
</g>
<!-- 6 -->
<g id="node7" class="node">
<title>6</title>
<path fill="none" stroke="#a7d856" stroke-width="2" d="M463,-468C463,-468 211,-468 211,-468 205,-468 199,-462 199,-456 199,-456 199,-444 199,-444 199,-438 205,-432 211,-432 211,-432 463,-432 463,-432 469,-432 475,-438 475,-444 475,-444 475,-456 475,-456 475,-462 469,-468 463,-468"/>
<text text-anchor="middle" x="337" y="-447.5" font-family="sans" font-size="10.00" fill="#000000">HPO_associations_gene_level_nuclear_DNA_F_to_J_R</text>
</g>
<!-- 6&#45;&gt;1 -->
<g id="edge15" class="edge">
<title>6&#45;&gt;1</title>
<path fill="none" stroke="#c0c0c0" stroke-width="2" d="M202.3046,-431.8747C194.6241,-429.2951 187.1333,-426.3536 180,-423 165.2767,-416.0781 151.2828,-404.7539 140.2402,-394.2588"/>
<polygon fill="#c0c0c0" stroke="#c0c0c0" stroke-width="2" points="142.6649,-391.7342 133.0942,-387.1897 137.742,-396.7106 142.6649,-391.7342"/>
</g>
<!-- 7 -->
<g id="node8" class="node">
<title>7</title>
<path fill="none" stroke="#569ad8" stroke-width="2" d="M466,-414C466,-414 208,-414 208,-414 202,-414 196,-408 196,-402 196,-402 196,-390 196,-390 196,-384 202,-378 208,-378 208,-378 466,-378 466,-378 472,-378 478,-384 478,-390 478,-390 478,-402 478,-402 478,-408 472,-414 466,-414"/>
<text text-anchor="middle" x="337" y="-393.5" font-family="sans" font-size="10.00" fill="#000000">HPO_associations_gene_level_nuclear_DNA_K_to_O_R</text>
</g>
<!-- 7&#45;&gt;1 -->
<g id="edge12" class="edge">
<title>7&#45;&gt;1</title>
<path fill="none" stroke="#c0c0c0" stroke-width="2" d="M195.8037,-378.6714C180.6592,-376.8127 166.3747,-375.0596 154.2346,-373.5697"/>
<polygon fill="#c0c0c0" stroke="#c0c0c0" stroke-width="2" points="154.5023,-370.0764 144.1504,-372.3321 153.6495,-377.0242 154.5023,-370.0764"/>
</g>
<!-- 8 -->
<g id="node9" class="node">
<title>8</title>
<path fill="none" stroke="#d8c356" stroke-width="2" d="M465,-360C465,-360 209,-360 209,-360 203,-360 197,-354 197,-348 197,-348 197,-336 197,-336 197,-330 203,-324 209,-324 209,-324 465,-324 465,-324 471,-324 477,-330 477,-336 477,-336 477,-348 477,-348 477,-354 471,-360 465,-360"/>
<text text-anchor="middle" x="337" y="-339.5" font-family="sans" font-size="10.00" fill="#000000">HPO_associations_gene_level_nuclear_DNA_P_to_T_R</text>
</g>
<!-- 8&#45;&gt;1 -->
<g id="edge9" class="edge">
<title>8&#45;&gt;1</title>
<path fill="none" stroke="#c0c0c0" stroke-width="2" d="M196.7361,-359.2142C181.3162,-361.1066 166.7567,-362.8935 154.4039,-364.4095"/>
<polygon fill="#c0c0c0" stroke="#c0c0c0" stroke-width="2" points="153.6495,-360.9758 144.1504,-365.6679 154.5023,-367.9236 153.6495,-360.9758"/>
</g>
<!-- 9 -->
<g id="node10" class="node">
<title>9</title>
<path fill="none" stroke="#5682d8" stroke-width="2" d="M466,-306C466,-306 208,-306 208,-306 202,-306 196,-300 196,-294 196,-294 196,-282 196,-282 196,-276 202,-270 208,-270 208,-270 466,-270 466,-270 472,-270 478,-276 478,-282 478,-282 478,-294 478,-294 478,-300 472,-306 466,-306"/>
<text text-anchor="middle" x="337" y="-285.5" font-family="sans" font-size="10.00" fill="#000000">HPO_associations_gene_level_nuclear_DNA_U_to_Z_R</text>
</g>
<!-- 9&#45;&gt;1 -->
<g id="edge13" class="edge">
<title>9&#45;&gt;1</title>
<path fill="none" stroke="#c0c0c0" stroke-width="2" d="M202.3046,-306.1253C194.6241,-308.7049 187.1333,-311.6464 180,-315 165.2767,-321.9219 151.2828,-333.2461 140.2402,-343.7412"/>
<polygon fill="#c0c0c0" stroke="#c0c0c0" stroke-width="2" points="137.742,-341.2894 133.0942,-350.8103 142.6649,-346.2658 137.742,-341.2894"/>
</g>
<!-- 10 -->
<g id="node11" class="node">
<title>10</title>
<path fill="none" stroke="#d8b456" stroke-width="2" d="M452,-252C452,-252 222,-252 222,-252 216,-252 210,-246 210,-240 210,-240 210,-228 210,-228 210,-222 216,-216 222,-216 222,-216 452,-216 452,-216 458,-216 464,-222 464,-228 464,-228 464,-240 464,-240 464,-246 458,-252 452,-252"/>
<text text-anchor="middle" x="337" y="-231.5" font-family="sans" font-size="10.00" fill="#000000">HPO_associations_patient_level_patient_level_R</text>
</g>
<!-- 10&#45;&gt;1 -->
<g id="edge8" class="edge">
<title>10&#45;&gt;1</title>
<path fill="none" stroke="#c0c0c0" stroke-width="2" d="M209.7144,-245.7607C199.1718,-249.6996 189.0897,-254.6941 180,-261 152.2543,-280.2484 134.9653,-315.9849 125.6701,-341.0625"/>
<polygon fill="#c0c0c0" stroke="#c0c0c0" stroke-width="2" points="122.2795,-340.155 122.2769,-350.7499 128.8859,-342.4691 122.2795,-340.155"/>
</g>
<!-- 11 -->
<g id="node12" class="node">
<title>11</title>
<path fill="none" stroke="#78d856" stroke-width="2" d="M409,-198C409,-198 265,-198 265,-198 259,-198 253,-192 253,-186 253,-186 253,-174 253,-174 253,-168 259,-162 265,-162 265,-162 409,-162 409,-162 415,-162 421,-168 421,-174 421,-174 421,-186 421,-186 421,-192 415,-198 409,-198"/>
<text text-anchor="middle" x="337" y="-177.5" font-family="sans" font-size="10.00" fill="#000000">all_contributors_contributors_R</text>
</g>
<!-- 11&#45;&gt;1 -->
<g id="edge5" class="edge">
<title>11&#45;&gt;1</title>
<path fill="none" stroke="#c0c0c0" stroke-width="2" d="M252.9565,-178.8781C227.2114,-182.3705 200.3455,-190.3748 180,-207 139.0589,-240.4547 124.6486,-303.9972 119.6307,-340.7735"/>
<polygon fill="#c0c0c0" stroke="#c0c0c0" stroke-width="2" points="116.141,-340.4766 118.4027,-350.8272 123.0894,-341.3253 116.141,-340.4766"/>
</g>
<!-- 12 -->
<g id="node13" class="node">
<title>12</title>
<path fill="none" stroke="#56d863" stroke-width="2" d="M446,-144C446,-144 228,-144 228,-144 222,-144 216,-138 216,-132 216,-132 216,-120 216,-120 216,-114 222,-108 228,-108 228,-108 446,-108 446,-108 452,-108 458,-114 458,-120 458,-120 458,-132 458,-132 458,-138 452,-144 446,-144"/>
<text text-anchor="middle" x="337" y="-123.5" font-family="sans" font-size="10.00" fill="#000000">data_protection_data_protection_statement_R</text>
</g>
<!-- 12&#45;&gt;1 -->
<g id="edge6" class="edge">
<title>12&#45;&gt;1</title>
<path fill="none" stroke="#c0c0c0" stroke-width="2" d="M215.6693,-132.4253C202.5931,-137.151 190.3171,-143.792 180,-153 151.8489,-178.1248 130.308,-288.3401 121.4324,-340.9102"/>
<polygon fill="#c0c0c0" stroke="#c0c0c0" stroke-width="2" points="117.9576,-340.4711 119.7804,-350.908 124.8639,-341.6124 117.9576,-340.4711"/>
</g>
<!-- 13 -->
<g id="node14" class="node">
<title>13</title>
<path fill="none" stroke="#56d87b" stroke-width="2" d="M445,-90C445,-90 229,-90 229,-90 223,-90 217,-84 217,-78 217,-78 217,-66 217,-66 217,-60 223,-54 229,-54 229,-54 445,-54 445,-54 451,-54 457,-60 457,-66 457,-66 457,-78 457,-78 457,-84 451,-90 445,-90"/>
<text text-anchor="middle" x="337" y="-69.5" font-family="sans" font-size="10.00" fill="#000000">genetic_variants_disease_causing_variants_R</text>
</g>
<!-- 13&#45;&gt;1 -->
<g id="edge10" class="edge">
<title>13&#45;&gt;1</title>
<path fill="none" stroke="#c0c0c0" stroke-width="2" d="M216.737,-77.3166C203.1556,-82.163 190.4645,-89.1346 180,-99 144.9776,-132.0173 126.2264,-278.2291 119.698,-340.6254"/>
<polygon fill="#c0c0c0" stroke="#c0c0c0" stroke-width="2" points="116.1813,-340.6129 118.6534,-350.9153 123.1455,-341.32 116.1813,-340.6129"/>
</g>
<!-- 14 -->
<g id="node15" class="node">
<title>14</title>
<path fill="none" stroke="#d85656" stroke-width="2" d="M468.5,-36C468.5,-36 205.5,-36 205.5,-36 199.5,-36 193.5,-30 193.5,-24 193.5,-24 193.5,-12 193.5,-12 193.5,-6 199.5,0 205.5,0 205.5,0 468.5,0 468.5,0 474.5,0 480.5,-6 480.5,-12 480.5,-12 480.5,-24 480.5,-24 480.5,-30 474.5,-36 468.5,-36"/>
<text text-anchor="middle" x="337" y="-15.5" font-family="sans" font-size="10.00" fill="#000000">multi_omic_detection_gene_product_detection_rates_R</text>
</g>
<!-- 14&#45;&gt;1 -->
<g id="edge3" class="edge">
<title>14&#45;&gt;1</title>
<path fill="none" stroke="#c0c0c0" stroke-width="2" d="M193.4905,-34.2161C188.6779,-37.3608 184.1513,-40.938 180,-45 137.9255,-86.1696 122.8073,-269.9425 118.4775,-340.9089"/>
<polygon fill="#c0c0c0" stroke="#c0c0c0" stroke-width="2" points="114.9824,-340.7247 117.8938,-350.9116 121.9705,-341.1325 114.9824,-340.7247"/>
</g>
</g>
</svg>
